<?xml version="1.0" encoding="UTF-8"?>
<svg id="Contact" xmlns="http://www.w3.org/2000/svg" viewBox="0 0 191.73 45.9">
  <defs>
    <style>
      .cls-1 {
        stroke-width: 0px;
      }
    </style>
  </defs>
  <path class="cls-1" d="m29.22,41.39c-6.77-.07-14.06,1.72-19.94-2.77-2.34-1.79-4.29-4.5-4.32-7.54-.03-3.46,2.35-6.57,4.31-9.23C16.58,11.96,29.78,2,42.63,3.07c1.27.11,2.8-1.71,1.11-2.33-7.19-2.63-16.59,2.3-22.63,5.92-6.63,3.97-12.43,9.21-16.96,15.49C1.96,25.19-.3,28.76.03,32.68c.29,3.37,2.17,6.33,4.7,8.5,6.3,5.42,16.24,5.46,23.94,3.67,1.82-.42,3.41-3.43.55-3.46Z"/>
  <path class="cls-1" d="m47.21,23.97c1.02-.89.81-2.6-1.14-2.37-5.78.68-9.29,5.84-11.73,10.64-1.26,2.49-1.98,5.24-.26,7.71,1.39,1.99,3.85,3.11,6.21,3.34,5.81.56,11.59-4.28,14.77-8.75,3.65-5.14-2.78-9.99-7.86-10.56Zm3.4,9.8c-1.84,2.85-5.69,6.69-9.34,6.12-1.58-.25-3.24-1.16-3.9-2.69-.86-2,.49-4.18,1.43-5.89,1.14-2.07,2.48-4.35,4.42-5.7-.28.54-.19,1.12.62,1.61,2.24,1.35,9.26,2.69,6.77,6.55Z"/>
  <path class="cls-1" d="m109.58,38.47c-1.57.85-3.71,2.19-5.56,1.98-2.59-.29-2.91-2.41-2.38-4.58.78-3.21,2.46-6.47,3.9-9.46.05,0,.11,0,.16,0,4.08.1,8.28.49,12.34.04,1.45-.16,3.32-2.88,1.03-3.25-3.83-.62-7.82-.42-11.71-.45,2.74-5.24,5.91-10.25,9.45-14.99,1.3-1.73-1.99-2.09-2.97-.8-3.77,4.96-7.14,10.23-10.04,15.75-3.27-.04-6.53-.08-9.8-.09-1.06,0-2.03.76-2.43,1.57-.69.06-1.39.32-1.74.69-2.34,2.44-4.06,5.26-5.86,8.11-1.61,2.54-3.18,6.62-6.82,5.69-5.69-1.45-8.67-8.46-9.32-13.69-.27-2.19-3.55-1.28-4.11.28-.1.27-.19.53-.29.8-.3.24-.54.54-.64.89-.03.12-.06.23-.1.35-.09.32-.07.57.01.76-1.57,4.27-3.2,8.49-4.83,12.74-1.06,2.77,4.11,2.45,4.96.18.94-2.49,1.84-5,2.69-7.52.06-.17.12-.35.19-.53,2.06,4.7,5.54,8.8,10.69,9.72,3.65.66,7.07-.93,9.35-3.78,2.92-3.65,6.01-8.4,7.59-12.81,2.88.1,5.76.18,8.65.26-1.19,2.5-2.29,5.05-3.28,7.65-1.33,3.49-1.9,7.45,2.32,9.04,3.88,1.47,7.43-.7,10.37-3.05,1.49-1.19-.73-2.08-1.83-1.48Z"/>
  <path class="cls-1" d="m139.26,32.66c-.54-.15-1.1-.26-1.67-.33.32-2.8.62-6-1-8.36-3.08-4.5-9.96-3.47-12.25,1.2-.43.88.16,1.28.86,1.27-3.93,5.26-8.26,10.22-12.03,15.59-1.06,1.51,1.55,1.84,2.41.99,2.45-2.44,4.68-5.13,6.77-7.92.26.32.73.55,1.48.58,2.91.13,6.04.53,9.1.63-.08.5-.17.99-.26,1.48-.33,1.74-.96,3.51-.73,5.28.22,1.65,2.6,1.19,3.27.12,1.25-1.99,1.7-4.55,1.97-7.02.34-.04.67-.08,1-.13,1.56-.25,3.41-2.72,1.07-3.38Zm-6.79-.58c-2.46-.11-4.93-.21-7.39-.32-.11,0-.21,0-.32.02,1.6-2.28,3.13-4.6,4.65-6.89.26-.39.28-.7.16-.92,1.41-.12,2.85.59,3.66,2.13.87,1.65.49,3.87.32,5.64-.01.13-.03.25-.04.37-.35,0-.69-.02-1.03-.03Z"/>
  <path class="cls-1" d="m164.59,37.23c-3.11.45-6.15,1.3-9.26,1.74-1.88.27-3.77.46-5.67.55-1.09.05-2.77.32-3.58-.55-1.81-1.93,1.49-6.19,2.89-7.58.94-.93,1.98-1.73,3.1-2.44.48-.31,3.87-2.44,3.55-.71-.42,2.31,3.16,1.82,3.75.14.57-1.61,0-3.52-1.65-4.24-2.1-.92-4.4.12-6.26,1.11-4.18,2.22-8.14,5.6-9.81,10.15-1.64,4.46.32,7.73,5.12,7.92,5.89.23,12.97-.75,18.4-3.07,1.94-.83,1.88-3.37-.56-3.02Z"/>
  <path class="cls-1" d="m190.65,23.22c-3.67-.62-7.52-.42-11.24-.46,2.84-5.21,6.1-10.17,9.74-14.86,1.32-1.71-1.98-2.07-2.97-.8-3.88,4.91-7.33,10.14-10.32,15.62-3.09-.05-6.18-.09-9.27-.1-2.21,0-4.04,3.32-1.09,3.43,2.83.11,5.65.19,8.48.27-1.15,2.31-2.22,4.66-3.2,7.06-1.4,3.41-2.47,7.44,1.62,9.37,3.75,1.77,7.53-.23,10.49-2.51,1.63-1.25-.04-2.5-1.53-1.72-1.58.82-3.77,2.11-5.61,1.85-2.55-.35-2.89-2.52-2.27-4.65.91-3.18,2.53-6.34,4.03-9.31.09,0,.19,0,.28,0,3.92.1,7.95.5,11.85.05,1.45-.17,3.32-2.86,1.03-3.25Z"/>
</svg>