<?xml version="1.0" encoding="UTF-8"?>
<svg id="Patrick_La_Van" data-name="Patrick La Van" xmlns="http://www.w3.org/2000/svg" viewBox="0 0 315.47 69.95">
  <defs>
    <style>
      .cls-1 {
        stroke: #010101;
        stroke-miterlimit: 10;
      }
    </style>
  </defs>
  <path class="cls-1" d="m16.56,69.42c-.38-.25-.41-.39-.19-.83,2.72-5.45,5.39-10.94,8.19-16.36,5.9-11.43,11.86-22.83,17.8-34.24,1.23-2.36,2.47-4.72,3.71-7.08.32-.6.98-.89,1.64-.7.36.1.46.36.27.74-.53,1.06-1.08,2.11-1.61,3.17-3.14,6.19-6.27,12.38-9.41,18.57-.04.07-.07.15-.12.27.53-.03,1.02-.05,1.52-.09,2.28-.18,4.56-.32,6.84-.55,3.12-.31,6.24-.64,9.36-1.03,3.92-.49,7.82-1.11,11.71-1.84,4.84-.91,9.54-2.35,14.19-3.95,3.4-1.17,6.71-2.56,9.9-4.21,1.44-.75,2.81-1.63,3.94-2.82.58-.61,1.1-1.26,1.35-2.08.35-1.15.05-2.21-.5-3.23-.75-1.37-1.89-2.39-3.13-3.3-2-1.46-4.22-2.53-6.49-3.49-3.05-1.3-6.23-2.19-9.48-2.84-2.38-.47-4.78-.82-7.2-1.05-1.58-.15-3.15-.31-4.73-.41-3.32-.21-6.64-.3-9.97-.26-3.99.05-7.98.27-11.95.66-6.46.64-12.84,1.7-19.12,3.36-6.42,1.7-12.62,3.98-18.55,6.97-.54.27-1.05.63-1.52,1.01-.45.36-.62.87-.52,1.47.03.18-.05.43-.17.58-.28.36-.69.49-1.14.45-.35-.03-.52-.21-.58-.56-.03-.19-.05-.38-.08-.58,0-.09.01-.18.02-.28.13-.35.22-.73.39-1.06.37-.71.98-1.2,1.63-1.64,1.07-.73,2.27-1.21,3.44-1.74,2.83-1.29,5.7-2.48,8.63-3.52,5.87-2.07,11.88-3.58,18.02-4.62,4.41-.75,8.85-1.28,13.31-1.54,2.74-.16,5.48-.27,8.22-.29,2.99-.03,5.98.06,8.97.11.53,0,1.05.03,1.58.05,1.02.07,2.03.14,3.05.21.43.05.86.09,1.29.14,2.19.29,4.39.55,6.58.9,2.56.4,5.08,1.04,7.55,1.85,3.23,1.05,6.33,2.42,9.19,4.27,1.57,1.02,3.01,2.19,4.12,3.72.61.83,1.06,1.74,1.21,2.77.17,1.22-.13,2.33-.8,3.35-.9,1.36-2.09,2.42-3.41,3.35-1.87,1.31-3.92,2.27-5.98,3.23-5.82,2.69-11.9,4.55-18.16,5.85-4.89,1.02-9.81,1.81-14.77,2.39-2.88.34-5.76.66-8.64.89-2.52.21-5.05.29-7.57.41-.63.03-1.26.04-1.89.03-.23,0-.28.14-.35.29-1.7,3.33-3.39,6.66-5.09,9.99-4.15,8.09-8.38,16.15-12.73,24.13-.29.53-.63.92-1.25,1.01l-.5-.03Z"/>
  <path class="cls-1" d="m162.49,30.72c-.63.37-1.24.76-1.88,1.11-4.31,2.42-8.66,4.78-12.83,7.45-3.23,2.06-6.4,4.23-9.48,6.52-.15.11-.25.28-.42.47.21.05.34.08.46.11,1.02.25,1.96.67,2.87,1.18,2.73,1.55,5.45,3.11,8.18,4.67,2.6,1.49,5.21,2.98,7.8,4.48.62.36,1.22.78,1.81,1.18.5.33.49.74,0,1.07-.46.3-.91.3-1.41.06-2.56-1.26-5.01-2.72-7.47-4.16-3.59-2.1-7.19-4.17-10.8-6.24-.56-.32-1.18-.52-1.78-.77-.22-.1-.37-.07-.44.19-.03.11-.09.2-.14.3-.08.15-.15.28-.02.47.13.18-.09.51-.35.68-.12.08-.25.19-.31.32-2.01,4.33-3.96,8.69-5.77,13.11-.25.62-.57,1.21-.86,1.8-.2.41-.57.54-.99.53-.44-.01-.64-.27-.5-.69.33-1.01.62-2.04,1.05-3.01,1.65-3.8,3.34-7.58,5.02-11.38.04-.08.07-.17.12-.29-.55.07-1.07.15-1.59.2-2.01.18-4.02.39-6.03.51-3.23.19-6.46.25-9.69.03-2.22-.15-4.4-.53-6.43-1.5-1.29-.62-2.38-1.47-3.08-2.74-.74-1.34-.53-2.71.61-3.85,1-1,2.18-1.75,3.4-2.44,2.97-1.67,6.16-2.75,9.48-3.46,1.84-.39,3.71-.61,5.59-.64.82-.01,1.63.1,2.39.43.13.06.23.18.35.27-.13.12-.24.3-.39.35-.37.12-.75.2-1.14.24-1.21.12-2.41.23-3.62.33-2.25.18-4.42.69-6.55,1.41-2.56.86-4.94,2.09-7.16,3.62-.3.2-.58.44-.83.69-.54.54-.66,1.18-.34,1.89.45,1.01,1.27,1.67,2.19,2.22,1.14.67,2.39.99,3.67,1.2,3.51.56,7.04.74,10.58.58,2.89-.13,5.77-.35,8.65-.5.41-.02.65-.13.77-.52.05-.16.13-.3.2-.44-.03-.03-.04-.05-.05-.05-.26-.04-.49-.13-.57-.42-.08-.31.05-.57.29-.76.39-.3.8-.57,1.18-.87.16-.13.31-.29.4-.47,2.43-4.92,5.01-9.77,7.74-14.53,3.74-6.53,7.77-12.87,12.13-19.01.24-.34.55-.47.95-.44.43.04.57.3.34.66-.47.73-.95,1.46-1.43,2.18-5.33,8.1-10.27,16.42-14.76,25.01-.7,1.35-1.38,2.7-2.07,4.05-.04.08-.07.16-.14.31.77-.53,1.48-1.02,2.19-1.5,4.98-3.39,10.08-6.57,15.44-9.34,1.56-.81,3.16-1.54,4.74-2.31.35-.17.5-.13.75.17v.28Z"/>
  <path class="cls-1" d="m80.76,47.08c1-.2,2.02-.35,3.01-.6,3.07-.78,5.77-2.23,7.99-4.53.5-.52.96-1.08,1.28-1.74.61-1.26.4-2.44-.57-3.44-.89-.93-2-1.34-3.24-1.46-1.46-.14-2.9.09-4.35.25-1.17.13-2.33.36-3.42.81-.44.18-.88.4-1.28.66-1.29.82-1.98,2-1.88,3.54.04.64-.67,1.06-1.29.88-.3-.09-.36-.34-.38-.62-.08-1.06.16-2.04.73-2.94.45-.71,1.04-1.28,1.71-1.76.1-.07.2-.14.34-.24-.34,0-.62,0-.91,0-1.21.03-2.43.07-3.64.11-2.82.09-5.61.42-8.4.84-.98.15-1.96.31-2.93.47-.07.01-.19.05-.21.09-.14.52-.56.67-1,.77-.72.16-1.39.06-1.89-.55-.38-.46-.32-.93.18-1.25.2-.13.43-.22.66-.28,2.71-.66,5.46-1.11,8.24-1.4,2.34-.24,4.68-.47,7.03-.64,1.91-.14,3.83-.15,5.75.05.26.03.51.18.77.26.07.02.16.04.23.03,1.86-.35,3.74-.51,5.64-.51,1.27,0,2.51.2,3.64.83,1.19.67,2.08,1.61,2.41,2.97.27,1.09-.02,2.08-.59,3-.85,1.39-2,2.52-3.27,3.54-1.94,1.56-4.14,2.65-6.5,3.43-.09.03-.19.06-.28.15.34.04.68.08,1.02.12,3.09.36,6.18.72,9.27,1.08.86.1,1.73.2,2.59.32.25.03.39-.03.54-.25,3.1-4.75,6.22-9.5,9.33-14.25.26-.39.78-.57,1.22-.42.31.11.41.33.27.63-.04.07-.08.14-.13.21-2.97,4.69-5.93,9.37-8.9,14.06-.04.07-.08.14-.15.25.44.05.85.1,1.26.15,2.15.23,4.31.44,6.46.69,1.67.2,3.34.44,5.01.67,1.73.24,3.47.46,5.2.71,1.14.17,2.27.37,3.4.56.45.08.56.38.28.74-.25.32-.56.49-.99.45-1.75-.13-3.51-.23-5.27-.37-1.67-.14-3.34-.3-5.01-.47-1.69-.17-3.37-.34-5.06-.53-1.79-.2-3.57-.43-5.35-.64-.34-.04-.68-.09-1.02-.11-.09,0-.21.06-.26.14-.29.37-.56.76-.84,1.14-.27.37-.66.5-1.1.45-.41-.04-.57-.32-.38-.69.18-.36.38-.7.58-1.05.03-.05.05-.11.1-.21-.37-.04-.71-.09-1.06-.12-2.15-.23-4.29-.46-6.44-.7-2.49-.28-4.99-.57-7.48-.86-.66-.08-1.32-.16-1.98-.25-.16-.02-.25.03-.34.16-.38.52-.77,1.02-1.15,1.54-.19.26-.45.34-.76.31-.3-.03-.44-.21-.33-.5.18-.49.39-.98.59-1.47.03-.08.07-.17.11-.27-.17-.04-.33-.06-.47-.11-.49-.16-.65-.56-.39-1.01.28-.49.73-.78,1.28-.74.5.03.73-.17.99-.57,2.24-3.44,4.61-6.79,7.15-10.01.32-.4.74-.51,1.22-.42.41.08.51.35.26.69-.4.54-.8,1.06-1.2,1.6-1.99,2.68-3.87,5.43-5.59,8.29-.05.08-.09.16-.13.23.01.03.02.06.04.09Z"/>
  <path class="cls-1" d="m47.96,38.41c-.39-.37-.4-.61-.04-.96.52-.5,1.04-1,1.58-1.48.37-.33.82-.38,1.28-.24.36.11.47.4.27.75-.25.45-.52.87-.79,1.31-.08.13-.16.27-.22.43.05-.03.11-.07.16-.1.97-.74,1.93-1.51,3.05-2.01.9-.4,1.83-.68,2.82-.67,1.73.01,2.98.96,3.52,2.62.37,1.15.29,2.31-.03,3.45-.42,1.5-1.11,2.9-1.74,4.32-.55,1.24-1.06,2.5-1.63,3.74-.24.52-.52,1.02-.85,1.48-.3.41-.75.62-1.28.61-.67-.01-1.03-.59-.72-1.18.09-.17.23-.35.4-.45.23-.13.33-.32.43-.55.69-1.57,1.38-3.13,2.08-4.7.03-.07.05-.13.07-.18-.58,0-1.15,0-1.72,0-1.49,0-2.98.03-4.48.03-1.35,0-2.71-.03-4.06-.06-.19,0-.28.07-.38.21-2.28,3.3-4.69,6.51-7.22,9.62-.41.5-.94.63-1.54.57-.43-.05-.6-.37-.42-.77.08-.18.18-.34.28-.51,1.93-3.23,4.14-6.26,6.64-9.07.05-.06.11-.13.16-.19-.23-.41-.19-.7.13-1.09.25-.31.58-.49.97-.53.3-.03.49-.19.65-.44.86-1.33,1.75-2.64,2.63-3.97Zm1.19,4.34c.36,0,.7,0,1.04,0,2.23.03,4.46.06,6.69.11.2,0,.28-.05.33-.23.17-.59.39-1.16.51-1.75.22-1.07.09-2.11-.55-3.03-.49-.7-1.18-.98-2.03-.86-.75.11-1.43.43-2.01.89-1.2.96-2.37,1.95-3.55,2.94-.42.36-.82.74-1.24,1.13.73.19.75.2.79.8Z"/>
  <path class="cls-1" d="m72.78,37.13c-.09.21-.15.35-.21.48-1.22,2.42-2.42,4.84-3.66,7.25-.94,1.82-1.91,3.63-2.89,5.43-.28.5-.64.96-.98,1.43-.08.11-.19.24-.31.26-.2.05-.42.02-.64.02,0-.18-.04-.37,0-.53.5-1.67,1.31-3.22,2.13-4.75,1.66-3.12,3.33-6.23,4.99-9.35.24-.45.67-.64,1.17-.5.14.04.25.17.39.26Z"/>
  <path class="cls-1" d="m117.62,18.85c-.16-.09-.32-.13-.37-.23-.04-.08.03-.25.1-.34,1.62-2.07,3.25-4.13,4.89-6.19.11-.14.36-.21.55-.25.1-.02.28.06.32.14.04.07-.02.24-.09.33-.32.42-.65.83-.98,1.24-1.33,1.66-2.66,3.32-4,4.98-.1.12-.26.2-.42.31Z"/>
  <path class="cls-1" d="m238.4,2.47c-13,1.92-22.37,15.55-28.88,24.9-8.31,11.94-15.11,25.02-25.3,35.77-.77.82-.08,1.5.95,1.44,6.7-.42,13.51-1.02,20.16-1.87,5.66-.72,12.31-1.22,17.58-3.39,1.74-.71,1.79-2.99-.52-2.59-11.5,2.02-23.08,4.71-34.76,5.78,8.17-8.98,14.33-19.13,20.85-29.16,3.46-5.33,7.07-10.6,11.23-15.51,4.65-5.48,10.85-12.59,18.71-13.83,1.23-.19,1.44-1.75,0-1.54Z"/>
  <path class="cls-1" d="m290.97,35.68c-.53-1.66-1.79-2.61-3.52-2.62-.99,0-1.92.27-2.82.67-1.13.51-2.08,1.28-3.05,2.01-.05.04-.11.07-.16.1.06-.17.14-.3.22-.43.26-.44.54-.86.79-1.31.2-.35.09-.65-.27-.75-.46-.14-.91-.09-1.28.24-.54.48-1.06.98-1.58,1.48-.36.35-.35.59.04.96-.88,1.33-1.77,2.64-2.63,3.97-.16.25-.35.4-.65.44-.39.04-.72.23-.97.53-.32.39-.35.68-.13,1.09-.05.06-.1.12-.16.19-2.5,2.81-4.71,5.84-6.64,9.07-.1.17-.2.33-.28.51-.18.4,0,.72.42.77.6.07,1.13-.06,1.54-.57,2.53-3.11,4.94-6.32,7.22-9.62.1-.14.19-.21.38-.21,1.35.03,2.7.06,4.06.06,1.49,0,2.98-.02,4.48-.03.57,0,1.14,0,1.72,0-.02.04-.04.11-.07.18-.69,1.57-1.39,3.13-2.08,4.7-.1.22-.2.41-.43.55-.16.1-.31.27-.4.45-.31.59.05,1.17.72,1.18.53.01.98-.2,1.28-.61.33-.46.62-.97.85-1.48.56-1.24,1.08-2.5,1.63-3.74.63-1.42,1.32-2.82,1.74-4.32.32-1.14.4-2.3.03-3.45Zm-1.86,2.83c-.12.59-.34,1.17-.51,1.75-.05.18-.14.23-.33.23-2.23-.04-4.46-.08-6.69-.11-.34,0-.68,0-1.04,0-.05-.6-.06-.61-.79-.8.42-.39.82-.77,1.24-1.13,1.17-.99,2.35-1.98,3.55-2.94.58-.46,1.26-.78,2.01-.89.85-.13,1.54.15,2.03.86.64.92.77,1.96.55,3.03Z"/>
  <path class="cls-1" d="m290.6,2.97c-13.62,17.15-25.09,35.7-35.62,54.85.87-17.91,2.4-35.79,3.25-53.7.04-.82-1.5-.48-1.54.26-1.02,19.37-3,38.67-4.11,58.03-.06,1.07,1.72.68,2.06.07,11.44-20.46,23.88-40.06,37.61-59.06.72-.99-1.1-1.12-1.64-.44Z"/>
  <path class="cls-1" d="m225.11,32.19c-.99,0-1.92.27-2.82.67-1.13.51-2.08,1.28-3.05,2.01-.05.04-.11.07-.16.1.06-.17.14-.3.22-.43.26-.44.54-.86.79-1.31.2-.35.09-.65-.27-.75-.46-.14-.91-.09-1.28.24-.54.48-1.06.98-1.58,1.48-.36.35-.35.59.04.96-.88,1.33-1.77,2.64-2.63,3.97-.16.25-.35.4-.65.44-.39.04-.72.23-.97.53-.32.39-.35.68-.13,1.09-.05.06-.1.12-.16.19-2.5,2.81-4.71,5.84-6.64,9.07-.1.17-.2.33-.28.51-.18.4,0,.72.42.77.6.07,1.13-.06,1.54-.57,2.53-3.11,4.94-6.32,7.22-9.62.1-.14.19-.21.38-.21,1.35.03,2.7.06,4.06.06,1.49,0,2.98-.02,4.48-.03.57,0,1.14,0,1.72,0-.02.04-.04.11-.07.18-.69,1.57-1.39,3.13-2.08,4.7-.1.22-.2.41-.43.55-.16.1-.31.27-.4.45-.31.59.05,1.17.72,1.18.53.01.98-.2,1.28-.61.33-.46.62-.97.85-1.48.56-1.24,1.08-2.5,1.63-3.74.63-1.42,1.32-2.82,1.74-4.32.32-1.14.4-2.3.03-3.45-.53-1.66-1.79-2.61-3.52-2.62Zm1.66,5.45c-.12.59-.34,1.17-.51,1.75-.05.18-.14.23-.33.23-2.23-.04-4.46-.08-6.69-.11-.34,0-.68,0-1.04,0-.05-.6-.06-.61-.79-.8.42-.39.82-.77,1.24-1.13,1.17-.99,2.35-1.98,3.55-2.94.58-.46,1.26-.78,2.01-.89.85-.13,1.54.15,2.03.86.64.92.77,1.96.55,3.03Z"/>
  <path class="cls-1" d="m312.68,34.27c-3.19,3.93-5.31,8.51-8.01,12.71-1.3-4.1-3.05-8.34-2.99-12.59.01-.94-1.43-.55-1.74-.06-3.49,5.36-6.23,11.19-9.56,16.65-.54.89.96.98,1.38.37,3.13-4.41,5.49-9.33,8.23-14,.53,4.17,2.17,8.3,3.2,12.31.23.89,1.61.31,1.95-.14,3.46-4.66,6.73-9.67,9.66-14.68.82-1.41-1.44-1.4-2.11-.57Z"/>
</svg>