<?xml version="1.0" encoding="UTF-8"?>
<svg id="Work" xmlns="http://www.w3.org/2000/svg" viewBox="0 0 143.42 57.95">
  <defs>
    <style>
      .cls-1 {
        stroke-width: 0px;
      }
    </style>
  </defs>
  <path class="cls-1" d="m53.89,8.54c.86-2.3,1.97-4.75,1.77-7.24-.17-2.12-3.11-1.25-3.93-.14-2.7,3.62-3.66,8.74-5.3,12.9-1.77,4.51-3.71,8.97-5.85,13.32-1.84,3.76-3.77,7.55-5.91,11.16-.5.85-1.29,2.85-2.58,1.96-.43-.3-.7-1.68-.84-2.12-.6-1.88-.89-3.85-1.25-5.79-.55-2.95-1.2-6.38-3.48-8.54-2.64-2.49-5.34-.42-7.43,1.65-5.11,5.06-9.26,11.42-15.19,15.57.03-1.93,1.17-3.98,1.87-5.67,1.24-2.97,2.49-5.94,3.77-8.89,2.46-5.72,5.22-11.34,7.54-17.11.73-1.83-2.64-1.75-3.3-.49-3.19,6.13-5.82,12.6-8.56,18.94-1.35,3.12-2.7,6.25-3.99,9.4-.95,2.31-1.83,4.81-.64,7.19.56,1.12,1.95.9,2.87.41,7.73-4.13,12.51-11.59,18.56-17.63.31-.31.62-.61.94-.91.27-.41.38-.41.33-.01.7.19,1.34,2.1,1.59,2.73.7,1.8,1.01,3.73,1.35,5.62.5,2.75.87,7.79,3.71,9.32,6.92,3.74,13.1-11.58,15.14-15.57,2.24-4.38,4.31-8.86,6.2-13.4.92-2.2,1.79-4.42,2.63-6.66Z"/>
  <path class="cls-1" d="m65.63,24.87c-.51-.2-1.05-.34-1.59-.43.99-.39,1.76-1.34,1.05-2.2-2.63-3.19-6.5-.96-9.81,2.2-1.27.06-2.55.16-3.81.34-1.06.15-2.51,2.13-.77,2.43.58.1,1.17.18,1.75.25-1.4,1.66-2.53,3.21-3.16,4.09-1.9,2.67-3.51,6.05-2.37,9.37,1.07,3.13,4.19,4.33,7.28,4.15,6.55-.38,13.95-5.75,15.02-12.46.49-3.03-.5-6.53-3.58-7.74Zm-3.59-.7s.08.08.12.12c-.75-.02-1.49,0-2.23.03.9-.55,1.66-.68,2.1-.14Zm-4,16.95c-2.02,1.01-4.89,1.9-6.74.07-1.91-1.9-1.21-4.91-.07-6.98.42-.77,2.61-3.86,4.95-6.47.7.03,1.4.06,2.1.08,2.48.09,5.15-.24,6.15,2.57,1.6,4.53-2.71,8.89-6.39,10.74Z"/>
  <path class="cls-1" d="m142.93,42.5c-4.23-2.57-9.37-3.85-14.06-5.25-3.63-1.09-7.26-2.2-10.89-3.28,5.99-2.89,11.83-6.13,17.28-9.92,2.01-1.4-.07-3-1.83-2.05-.6.26-1.22.48-1.85.65-.65.2-.97.58-1.05.97-6.1,3.39-12.29,6.52-18.8,9.12,1.9-3.55,4.06-7.11,5.44-10.85.74-2.02-3.39-2.07-3.83-.21-4.71,6.76-7.43,14.85-11.69,21.91-.32-.09-.64-.19-.97-.28-5.59-1.6-11.18-3.21-16.78-4.79,1.93-.89,3.81-1.91,5.61-3.16,3.59-2.48,7.5-6.13,4.76-10.73-2.49-4.18-7.59-4.84-11.96-3.78-3.21.78-10.75,2.73-10.01,7.34.35,2.15,4.29,1.2,4-.68-.39-2.51,7.15-3.93,8.81-3.92,2.79.02,6.6,2.28,5.92,5.58-.6,2.88-4.56,4.92-6.95,6.25-1.34.75-2.78,1.45-4.27,2.01-.1-.02-.2-.04-.3-.06,2.24-3.82,4.24-7.84,6.38-11.55,1-1.74-1.92-2-2.72-.73-2.02,3.24-4.04,6.47-6.06,9.71-.49.79-1,1.57-1.51,2.36-1.9.26-3.43,1.23-3.73,3.66-.08.67.31,1.05.84,1.24-.32.63-.63,1.28-.9,1.93-.73,1.8,2.28,1.22,2.92.43.83-1.02,1.61-2.09,2.35-3.2.01,0,.03,0,.04-.01.33.09.66.18.98.29,1.23.35,2.44.73,3.66,1.09,2.62.78,5.25,1.54,7.87,2.31,3.23.95,6.47,1.9,9.7,2.85.08.67.6,1.25,1.33,1.48.85.26,1.71.06,2.44-.37.4.12.81.24,1.21.36,4.9,1.43,9.81,2.86,14.71,4.28,5.24,1.53,10.53,3.44,15.92,4.35,1.15.2,2.41-.1,3.16-1.06.54-.7.82-2.01-.25-2.46-5.81-2.48-12.17-3.85-18.24-5.6-4.42-1.27-8.83-2.54-13.25-3.81.15-.28.29-.57.41-.88.3-.77.14-1.25-.26-1.52,1.11-2.29,2.4-4.53,3.59-6.74.19.26.5.47.95.62,5.07,1.63,10.18,3.15,15.27,4.72,4.92,1.52,9.96,3.19,15.13,3.6,1.02.08,2.85-1.42,1.46-2.26Z"/>
</svg>